<?xml version="1.0" standalone="no"?>
<!DOCTYPE svg PUBLIC "-//W3C//DTD SVG 20010904//EN"
 "http://www.w3.org/TR/2001/REC-SVG-20010904/DTD/svg10.dtd">
<svg version="1.0" xmlns="http://www.w3.org/2000/svg"
 width="1280.000000pt" height="1055.000000pt" viewBox="0 0 1280.000000 1055.000000"
 preserveAspectRatio="xMidYMid meet">
<g transform="translate(0.000000,1055.000000) scale(0.100000,-0.100000)"
fill="#000000" stroke="none">
<path d="M6685 10538 c-234 -34 -271 -37 -365 -28 -402 40 -906 -39 -1227
-192 l-68 -33 55 -3 c30 -2 59 -7 63 -11 5 -5 -27 -28 -70 -51 -167 -92 -335
-216 -515 -383 -110 -101 -128 -128 -68 -97 76 39 73 22 -12 -72 -158 -176
-249 -309 -343 -503 -67 -137 -86 -196 -104 -310 -32 -206 -36 -303 -36 -860
0 -576 9 -791 41 -975 20 -119 27 -245 17 -310 l-9 -55 -53 3 c-64 3 -96 -14
-117 -63 -30 -72 -9 -204 75 -489 33 -110 44 -171 56 -296 13 -131 20 -168 42
-216 27 -57 28 -63 24 -204 -7 -301 -7 -302 19 -354 26 -55 62 -75 165 -96 69
-14 101 -29 166 -76 42 -31 50 -43 74 -117 33 -98 96 -235 153 -334 31 -53 47
-96 62 -166 59 -288 66 -679 19 -992 -28 -183 -103 -445 -162 -566 l-32 -64
-57 -3 -57 -3 -20 39 c-71 140 -259 225 -444 202 -93 -11 -127 -31 -181 -106
-54 -75 -91 -96 -201 -114 -308 -52 -422 -129 -491 -333 l-25 -75 -102 -52
c-376 -192 -691 -426 -784 -581 -35 -59 -63 -152 -63 -211 0 -136 -74 -274
-178 -331 -56 -30 -123 -42 -342 -56 -80 -6 -172 -17 -205 -26 -170 -44 -502
-248 -875 -539 -201 -157 -463 -384 -481 -418 -9 -17 297 -18 6373 -18 l6383
1 -210 207 c-218 216 -339 315 -449 370 -60 30 -68 38 -101 100 -80 153 -214
286 -360 358 -151 74 -278 98 -603 110 -116 4 -185 11 -189 18 -4 6 -8 46 -9
89 -1 70 -5 86 -44 165 -40 82 -54 99 -254 297 -271 270 -277 280 -286 480 -6
125 -9 145 -33 192 -35 68 -86 102 -221 149 -59 20 -122 47 -139 60 -102 75
-138 95 -196 110 -60 15 -73 15 -170 0 -137 -21 -184 -20 -322 4 -136 24 -211
25 -314 5 -94 -18 -131 -38 -168 -93 -16 -23 -33 -40 -37 -37 -26 16 -114 278
-155 460 -78 349 -89 776 -29 1145 13 82 28 122 108 295 100 214 120 268 145
385 l16 75 95 47 c156 76 180 124 180 352 0 161 18 285 47 336 13 22 31 93 47
186 14 83 42 198 62 255 121 356 121 589 2 589 -35 0 -112 -35 -167 -75 -34
-25 -65 -32 -75 -16 -3 4 5 64 18 132 77 398 115 727 126 1089 6 162 14 390
19 507 14 317 -3 483 -68 662 -99 270 -365 615 -642 832 -45 35 -91 71 -103
81 -39 30 -5 33 76 5 44 -15 82 -26 85 -24 10 11 -277 208 -409 281 -38 21
-68 42 -68 48 0 10 87 4 135 -9 l20 -5 -20 14 c-30 22 -203 94 -334 139 -216
75 -434 126 -631 149 -52 6 -125 15 -162 20 -80 12 -230 11 -313 -2z"/>
</g>
</svg>
